<svg width="428" height="455" viewBox="0 0 428 455" fill="none" xmlns="http://www.w3.org/2000/svg">
<g clip-path="url(#clip0_102_178)">
<path d="M10.8168 0C4.84171 0 0 4.84167 0 10.8167C0 16.7833 4.84171 21.625 10.8168 21.625C16.7918 21.625 21.6335 16.7833 21.6335 10.8167C21.6294 4.84167 16.7877 0 10.8168 0Z" fill="#D15357"/>
<path d="M61.609 0C55.6381 0 50.7964 4.84167 50.7964 10.8167C50.7964 16.7833 55.6423 21.625 61.609 21.625C67.584 21.625 72.4258 16.7833 72.4258 10.8167C72.4258 4.84167 67.584 0 61.609 0Z" fill="#D15357"/>
<path d="M112.41 0C106.434 0 101.593 4.84167 101.593 10.8167C101.593 16.7833 106.434 21.625 112.41 21.625C118.38 21.625 123.226 16.7833 123.226 10.8167C123.222 4.84167 118.38 0 112.41 0Z" fill="#D15357"/>
<path d="M163.206 0C157.227 0 152.389 4.84167 152.389 10.8167C152.389 16.7833 157.227 21.625 163.206 21.625C169.177 21.625 174.019 16.7833 174.019 10.8167C174.019 4.84167 169.177 0 163.206 0Z" fill="#D15357"/>
<path d="M213.998 0C208.023 0 203.186 4.84167 203.186 10.8167C203.186 16.7833 208.023 21.625 213.998 21.625C219.973 21.625 224.815 16.7833 224.815 10.8167C224.815 4.84167 219.973 0 213.998 0Z" fill="#D15357"/>
<path d="M264.798 0C258.819 0 253.978 4.84167 253.978 10.8167C253.978 16.7833 258.819 21.625 264.798 21.625C270.774 21.625 275.615 16.7833 275.615 10.8167C275.611 4.84167 270.769 0 264.798 0Z" fill="#D15357"/>
<path d="M315.595 0C309.615 0 304.77 4.84167 304.77 10.8167C304.77 16.7833 309.615 21.625 315.595 21.625C321.566 21.625 326.411 16.7833 326.411 10.8167C326.411 4.84167 321.566 0 315.595 0Z" fill="#D15357"/>
<path d="M366.391 0C360.412 0 355.57 4.84167 355.57 10.8167C355.57 16.7833 360.412 21.625 366.391 21.625C372.366 21.625 377.208 16.7833 377.208 10.8167C377.204 4.84167 372.362 0 366.391 0Z" fill="#D15357"/>
<path d="M417.187 0C411.208 0 406.366 4.84167 406.366 10.8167C406.366 16.7833 411.208 21.625 417.187 21.625C423.158 21.625 428 16.7833 428 10.8167C428 4.84167 423.158 0 417.187 0Z" fill="#D15357"/>
<path d="M10.8168 54.175C4.84171 54.175 0 59.0126 0 64.9876C0 70.9542 4.84171 75.7959 10.8168 75.7959C16.7918 75.7959 21.6335 70.9542 21.6335 64.9876C21.6294 59.0126 16.7877 54.175 10.8168 54.175Z" fill="#D15357"/>
<path d="M61.609 54.175C55.6381 54.175 50.7964 59.0126 50.7964 64.9876C50.7964 70.9542 55.6423 75.7959 61.609 75.7959C67.584 75.7959 72.4258 70.9542 72.4258 64.9876C72.4258 59.0126 67.584 54.175 61.609 54.175Z" fill="#D15357"/>
<path d="M112.41 54.175C106.434 54.175 101.593 59.0126 101.593 64.9876C101.593 70.9542 106.434 75.7959 112.41 75.7959C118.38 75.7959 123.226 70.9542 123.226 64.9876C123.222 59.0126 118.38 54.175 112.41 54.175Z" fill="#D15357"/>
<path d="M163.206 54.175C157.227 54.175 152.389 59.0126 152.389 64.9876C152.389 70.9542 157.227 75.7959 163.206 75.7959C169.177 75.7959 174.019 70.9542 174.019 64.9876C174.019 59.0126 169.177 54.175 163.206 54.175Z" fill="#D15357"/>
<path d="M213.998 54.175C208.023 54.175 203.186 59.0126 203.186 64.9876C203.186 70.9542 208.023 75.7959 213.998 75.7959C219.973 75.7959 224.815 70.9542 224.815 64.9876C224.815 59.0126 219.973 54.175 213.998 54.175Z" fill="#D15357"/>
<path d="M264.798 54.175C258.819 54.175 253.978 59.0126 253.978 64.9876C253.978 70.9542 258.819 75.7959 264.798 75.7959C270.774 75.7959 275.615 70.9542 275.615 64.9876C275.611 59.0126 270.769 54.175 264.798 54.175Z" fill="#D15357"/>
<path d="M315.595 54.175C309.615 54.175 304.77 59.0126 304.77 64.9876C304.77 70.9542 309.615 75.7959 315.595 75.7959C321.566 75.7959 326.411 70.9542 326.411 64.9876C326.411 59.0126 321.566 54.175 315.595 54.175Z" fill="#D15357"/>
<path d="M366.391 54.175C360.412 54.175 355.57 59.0126 355.57 64.9876C355.57 70.9542 360.412 75.7959 366.391 75.7959C372.366 75.7959 377.208 70.9542 377.208 64.9876C377.204 59.0126 372.362 54.175 366.391 54.175Z" fill="#D15357"/>
<path d="M417.187 54.175C411.208 54.175 406.366 59.0126 406.366 64.9876C406.366 70.9542 411.208 75.7959 417.187 75.7959C423.158 75.7959 428 70.9542 428 64.9876C428 59.0126 423.158 54.175 417.187 54.175Z" fill="#D15357"/>
<path d="M10.8168 108.35C4.84171 108.35 0 113.187 0 119.158C0 125.129 4.84171 129.967 10.8168 129.967C16.7918 129.967 21.6335 125.125 21.6335 119.158C21.6335 113.192 16.7877 108.35 10.8168 108.35Z" fill="#D15357"/>
<path d="M61.609 108.35C55.6381 108.35 50.7964 113.187 50.7964 119.158C50.7964 125.129 55.6423 129.967 61.609 129.967C67.584 129.967 72.4258 125.125 72.4258 119.158C72.4258 113.192 67.584 108.35 61.609 108.35Z" fill="#D15357"/>
<path d="M10.8168 162.521C4.84171 162.521 0 167.363 0 173.329C0 179.304 4.84171 184.142 10.8168 184.142C16.7918 184.142 21.6335 179.304 21.6335 173.329C21.6294 167.363 16.7877 162.521 10.8168 162.521Z" fill="#D15357"/>
<path d="M61.609 162.521C55.6381 162.521 50.7964 167.363 50.7964 173.329C50.7964 179.304 55.6423 184.142 61.609 184.142C67.584 184.142 72.4258 179.304 72.4258 173.329C72.4258 167.363 67.584 162.521 61.609 162.521Z" fill="#D15357"/>
<path d="M10.8168 216.692C4.84171 216.692 0 221.533 0 227.5C0 233.471 4.84171 238.312 10.8168 238.312C16.7918 238.312 21.6335 233.471 21.6335 227.5C21.6294 221.533 16.7877 216.692 10.8168 216.692Z" fill="#D15357"/>
<path d="M61.609 216.692C55.6381 216.692 50.7964 221.533 50.7964 227.5C50.7964 233.471 55.6423 238.312 61.609 238.312C67.584 238.312 72.4258 233.471 72.4258 227.5C72.4258 221.533 67.584 216.692 61.609 216.692Z" fill="#D15357"/>
<path d="M10.8168 270.863C4.84171 270.863 0 275.704 0 281.679C0 287.646 4.84171 292.488 10.8168 292.488C16.7918 292.488 21.6335 287.646 21.6335 281.679C21.6294 275.704 16.7877 270.863 10.8168 270.863Z" fill="#D15357"/>
<path d="M61.609 270.863C55.6381 270.863 50.7964 275.704 50.7964 281.679C50.7964 287.646 55.6423 292.488 61.609 292.488C67.584 292.488 72.4258 287.646 72.4258 281.679C72.4258 275.704 67.584 270.863 61.609 270.863Z" fill="#D15357"/>
<path d="M10.8168 325.037C4.84171 325.037 0 329.875 0 335.85C0 341.821 4.84171 346.662 10.8168 346.662C16.7918 346.662 21.6335 341.821 21.6335 335.85C21.6294 329.875 16.7877 325.037 10.8168 325.037Z" fill="#D15357"/>
<path d="M61.609 325.037C55.6381 325.037 50.7964 329.875 50.7964 335.85C50.7964 341.821 55.6423 346.662 61.609 346.662C67.584 346.662 72.4258 341.821 72.4258 335.85C72.4258 329.875 67.584 325.037 61.609 325.037Z" fill="#D15357"/>
<path d="M10.8168 379.208C4.84171 379.208 0 384.046 0 390.017C0 395.988 4.84171 400.825 10.8168 400.825C16.7918 400.825 21.6335 395.988 21.6335 390.017C21.6294 384.046 16.7877 379.208 10.8168 379.208Z" fill="#D15357"/>
<path d="M61.609 379.208C55.6381 379.208 50.7964 384.046 50.7964 390.021C50.7964 395.992 55.6423 400.829 61.609 400.829C67.584 400.829 72.4258 395.992 72.4258 390.021C72.4258 384.046 67.584 379.208 61.609 379.208Z" fill="#D15357"/>
<path d="M10.8168 433.383C4.84171 433.383 0 438.221 0 444.192C0 450.163 4.84171 455.004 10.8168 455.004C16.7918 455.004 21.6335 450.163 21.6335 444.192C21.6335 438.221 16.7877 433.383 10.8168 433.383Z" fill="#D15357"/>
<path d="M61.609 433.383C55.6381 433.383 50.7964 438.221 50.7964 444.192C50.7964 450.163 55.6423 455.004 61.609 455.004C67.584 455.004 72.4258 450.163 72.4258 444.192C72.4258 438.221 67.584 433.383 61.609 433.383Z" fill="#D15357"/>
</g>
<defs>
<clipPath id="clip0_102_178">
<rect width="428" height="455" fill="white"/>
</clipPath>
</defs>
</svg>
